<svg width="125" height="38" viewBox="0 0 125 38" fill="none" xmlns="http://www.w3.org/2000/svg">
<path d="M24.6357 0.493162L24.6739 0.56826L21.9654 8.74904L21.9254 8.67025L12.2993 13.4981L15.0059 5.32161L24.6357 0.493162Z" fill="#DC7427"/>
<path d="M24.6738 0.568302L32.143 15.4728L24.0416 12.7779L23.9967 12.8007L21.9653 8.74908L24.6738 0.568302Z" fill="#F9A11B"/>
<path d="M36.9933 25.1401L28.8217 22.4193L23.9976 12.8006L24.0425 12.7778L32.1439 15.4727L36.9933 25.1401Z" fill="#DC1C49"/>
<path d="M36.9933 25.1402L37.0001 25.1543L21.9971 32.6777L24.7037 24.5025L28.8292 22.4336L28.8218 22.4194L36.9933 25.1402Z" fill="#B71E3F"/>
<path d="M24.7026 24.5025L21.996 32.6778L12.3662 37.5068L12.3508 37.4767L15.0624 29.3026L15.0784 29.3334L24.7026 24.5025Z" fill="#4456A6"/>
<path d="M8.18439 15.5615L0.00976562 12.8425L15.006 5.32164L12.2994 13.4981L8.18439 15.5615Z" fill="#088ECB"/>
<path d="M8.18447 15.5615L8.17401 15.5664L12.9852 25.1586L4.8106 22.4391L0 12.8475L0.00984894 12.8425L8.18447 15.5615Z" fill="#3C94D1"/>
<path d="M12.3507 37.4765L4.81006 22.439L12.9847 25.1585L15.0622 29.3025L12.3507 37.4765Z" fill="#5365AE"/>
<path d="M56.4648 28H53.3477V14.9453H56.4648V28ZM53.2188 11.5352C53.2188 11.0195 53.3672 10.6133 53.6641 10.3164C53.9688 10.0117 54.3906 9.85938 54.9297 9.85938C55.4375 9.85938 55.8438 10.0117 56.1484 10.3164C56.4531 10.6133 56.6055 11.0195 56.6055 11.5352C56.6055 12.0664 56.4492 12.4805 56.1367 12.7773C55.8242 13.0664 55.4219 13.2109 54.9297 13.2109C54.4141 13.2109 54 13.0664 53.6875 12.7773C53.375 12.4805 53.2188 12.0664 53.2188 11.5352ZM72.2977 28V20.2188C72.2977 18.3047 71.825 17.3477 70.8797 17.3477C70.1922 17.3477 69.7 17.6914 69.4031 18.3789C69.1062 19.0586 68.9578 20.1523 68.9578 21.6602V28H65.8172V20.2188C65.8172 18.3047 65.3367 17.3477 64.3758 17.3477C63.7039 17.3477 63.2156 17.6875 62.9109 18.3672C62.6062 19.0469 62.4539 20.168 62.4539 21.7305V28H59.3367V14.9453H61.8094L62.1844 16.6211H62.3836C62.6961 15.957 63.1219 15.4727 63.6609 15.168C64.2078 14.8555 64.7898 14.6992 65.407 14.6992C67.0008 14.6992 68.0633 15.4531 68.5945 16.9609H68.7117C69.3758 15.4531 70.4422 14.6992 71.9109 14.6992C73.0672 14.6992 73.9422 15.1055 74.5359 15.918C75.1375 16.7305 75.4383 17.918 75.4383 19.4805V28H72.2977ZM84.568 28L83.9469 26.2188H83.8766C83.4156 26.9844 82.9391 27.5117 82.4469 27.8008C81.9547 28.0898 81.3336 28.2344 80.5836 28.2344C79.6227 28.2344 78.8648 27.875 78.3102 27.1562C77.7633 26.4375 77.4898 25.4375 77.4898 24.1562C77.4898 22.7812 77.8648 21.7617 78.6148 21.0977C79.3727 20.4258 80.5016 20.0547 82.0016 19.9844L83.7359 19.9141V18.9766C83.7359 17.7578 83.2086 17.1484 82.1539 17.1484C81.3727 17.1484 80.4742 17.4531 79.4586 18.0625L78.3805 15.9062C79.6773 15.0859 81.0875 14.6758 82.6109 14.6758C83.9937 14.6758 85.0445 15.0742 85.7633 15.8711C86.4898 16.6602 86.8531 17.7812 86.8531 19.2344V28H84.568ZM81.8609 25.7969C82.4312 25.7969 82.8844 25.543 83.2203 25.0352C83.5641 24.5195 83.7359 23.8359 83.7359 22.9844V21.8828L82.775 21.9297C82.0641 21.9688 81.5406 22.1719 81.2047 22.5391C80.8766 22.9062 80.7125 23.4531 80.7125 24.1797C80.7125 25.2578 81.0953 25.7969 81.8609 25.7969ZM94.1078 25.5977C94.5453 25.5977 95.018 25.4883 95.5258 25.2695V27.707C95.018 28.0586 94.2562 28.2344 93.2406 28.2344C92.1078 28.2344 91.268 27.8984 90.7211 27.2266C90.1742 26.5469 89.9008 25.5312 89.9008 24.1797V17.418H88.6352V16.0234L90.2641 14.8984L91.0609 12.1328H93.0531V14.9453H95.4203V17.418H93.0531V24.2852C93.0531 25.1602 93.4047 25.5977 94.1078 25.5977ZM102.37 28.2344C100.737 28.2344 99.4484 27.6562 98.5031 26.5C97.5656 25.3359 97.0969 23.6914 97.0969 21.5664C97.0969 19.4102 97.5227 17.7266 98.3742 16.5156C99.2258 15.3047 100.413 14.6992 101.937 14.6992C103.359 14.6992 104.48 15.2188 105.3 16.2578C106.12 17.2891 106.53 18.7383 106.53 20.6055V22.2695H100.261C100.284 23.4336 100.523 24.3008 100.976 24.8711C101.429 25.4336 102.054 25.7148 102.851 25.7148C103.866 25.7148 104.905 25.3984 105.968 24.7656V27.332C104.968 27.9336 103.769 28.2344 102.37 28.2344ZM101.913 17.1016C101.468 17.1016 101.101 17.3398 100.812 17.8164C100.523 18.2852 100.355 19.0156 100.308 20.0078H103.472C103.456 19.0547 103.312 18.332 103.038 17.8398C102.765 17.3477 102.39 17.1016 101.913 17.1016ZM115.801 24.1797C115.801 25.4531 115.426 26.4492 114.676 27.168C113.934 27.8789 112.836 28.2344 111.383 28.2344C110.094 28.2344 109.027 27.9805 108.184 27.4727V24.7656C108.613 25.0625 109.113 25.3086 109.684 25.5039C110.262 25.6992 110.77 25.7969 111.207 25.7969C111.691 25.7969 112.059 25.6797 112.309 25.4453C112.566 25.2031 112.695 24.8867 112.695 24.4961C112.695 24.0977 112.562 23.75 112.297 23.4531C112.031 23.1562 111.543 22.793 110.832 22.3633C109.887 21.8008 109.207 21.2031 108.793 20.5703C108.387 19.9297 108.184 19.1758 108.184 18.3086C108.184 17.1992 108.562 16.3203 109.32 15.6719C110.086 15.0234 111.133 14.6992 112.461 14.6992C113.617 14.6992 114.707 15.0039 115.73 15.6133L114.711 17.8516C113.875 17.3984 113.141 17.1719 112.508 17.1719C112.109 17.1719 111.809 17.2773 111.605 17.4883C111.41 17.6992 111.312 17.957 111.312 18.2617C111.312 18.6133 111.434 18.9258 111.676 19.1992C111.926 19.4727 112.387 19.8125 113.059 20.2188C113.871 20.7109 114.441 21.1289 114.77 21.4727C115.098 21.8164 115.352 22.207 115.531 22.6445C115.711 23.082 115.801 23.5938 115.801 24.1797ZM122.505 25.5977C122.942 25.5977 123.415 25.4883 123.923 25.2695V27.707C123.415 28.0586 122.653 28.2344 121.637 28.2344C120.505 28.2344 119.665 27.8984 119.118 27.2266C118.571 26.5469 118.298 25.5312 118.298 24.1797V17.418H117.032V16.0234L118.661 14.8984L119.458 12.1328H121.45V14.9453H123.817V17.418H121.45V24.2852C121.45 25.1602 121.802 25.5977 122.505 25.5977Z" fill="white"/>
</svg>
